<svg width="345" height="345" viewBox="0 0 345 345" fill="none" xmlns="http://www.w3.org/2000/svg">
<path d="M142.681 261C119.161 261 96.6049 251.676 79.974 235.079C63.3431 218.482 54 195.971 54 172.5V84H113.121V172.5C113.121 180.324 116.235 187.827 121.779 193.359C127.322 198.892 134.841 202 142.681 202C150.521 202 158.04 198.892 163.583 193.359C169.127 187.827 172.241 180.324 172.241 172.5V84H231.362V172.5C231.362 195.971 222.018 218.482 205.388 235.079C188.757 251.676 166.201 261 142.681 261Z" fill="#1EC572"/>
<path d="M290.482 202H142.681V261H290.482V202Z" fill="#016938"/>
<path opacity="0.6" d="M142.681 261C119.161 261 96.6049 251.676 79.974 235.079C63.3431 218.482 54 195.971 54 172.5V84H113.121V172.5C113.121 180.324 116.235 187.827 121.779 193.359C127.322 198.892 134.841 202 142.681 202C150.521 202 158.04 198.892 163.583 193.359C169.127 187.827 172.241 180.324 172.241 172.5V84H231.362V172.5C231.362 195.971 222.018 218.482 205.388 235.079C188.757 251.676 166.201 261 142.681 261Z" fill="#1EC572"/>
</svg>
