<svg width="345" height="345" viewBox="0 0 345 345" fill="none" xmlns="http://www.w3.org/2000/svg">
<path d="M253.414 142.91L108.383 180.294C106.254 180.842 104.156 179.321 103.996 177.132C103.874 175.436 103.806 173.725 103.806 171.999C103.806 133.786 134.781 102.811 172.995 102.811C192.413 102.811 209.961 110.824 222.522 123.712C224.111 125.346 226.483 125.97 228.688 125.4L239.576 122.609C244.176 121.431 246 115.82 242.913 112.208C225.958 92.3942 200.723 79.8717 172.569 80.001C122.494 80.2291 81.4601 121.066 81.004 171.14C80.5326 222.583 122.289 264.386 173.717 263.998C223.236 263.618 263.891 223.572 264.978 174.06C265.176 164.936 264.043 156.109 261.762 147.753C261.284 146.012 260.141 144.528 258.579 143.622C257.018 142.716 255.162 142.46 253.414 142.91ZM206.038 242.564L179.092 251.354C178.601 251.514 178.081 251.572 177.566 251.526C177.051 251.479 176.55 251.328 176.095 251.082C175.64 250.836 175.24 250.5 174.918 250.094C174.597 249.689 174.362 249.222 174.226 248.723L162.578 205.795C162.419 205.278 162.274 204.761 162.153 204.229L161.97 203.553L162.008 203.56C161.734 202.207 161.59 200.808 161.59 199.371C161.59 187.16 171.862 177.36 184.24 178.128C194.869 178.789 203.506 187.457 204.13 198.086C204.457 203.689 202.624 208.86 199.378 212.836C198.123 214.372 197.918 216.516 198.8 218.295L208.266 237.235C209.315 239.31 208.258 241.842 206.038 242.564Z" fill="#86C041"/>
</svg>
