<svg width="345" height="345" viewBox="0 0 345 345" fill="none" xmlns="http://www.w3.org/2000/svg">
<path d="M101.737 157.887V169.245C101.737 169.245 91.9968 169.008 89.9543 169.087C87.2052 169.166 87.7551 172.794 87.7551 172.794L87.5979 187.464H101.501V199.846H87.3623V247.248H63.4048V199.846H55V187.464H64.1117V167.51C64.1117 167.51 63.2477 158.439 73.7733 158.203C84.2989 157.966 101.737 157.887 101.737 157.887Z" fill="#0D3A94"/>
<path d="M142.032 192.197H159.392C160.963 192.197 162.22 192.749 162.22 191.172L161.984 173.031C161.984 172.794 161.984 172.637 161.905 172.4C161.513 170.744 160.413 161.911 147.923 159.071C147.688 158.992 147.531 158.913 147.295 158.913C144.703 158.598 127.736 156.626 120.196 158.992C115.326 160.491 112.419 162.699 110.063 165.065C107.942 167.195 105.978 170.586 105.821 173.583L105.978 190.935C105.664 193.064 107.706 196.219 110.534 198.427C114.54 201.503 121.845 205.526 131.821 210.179C131.821 210.179 137.398 211.915 137.712 215.464C137.948 218.303 138.576 227.846 138.576 231.396C138.576 232.421 138.026 233.367 137.162 233.841C136.063 234.472 134.335 234.866 132.371 233.919C131.507 233.446 130.878 232.5 130.878 231.474L130.407 214.202C130.328 212.703 130.407 211.362 128.915 211.362L107.785 211.126C106.292 211.126 105.9 210.574 105.9 212.072L106.371 233.525C106.371 233.841 106.45 234.077 106.528 234.393C107.235 236.522 110.848 245.829 120.981 246.696C131.742 247.643 144.075 247.248 145.724 247.169C145.881 247.169 145.96 247.169 146.117 247.169C147.688 246.854 158.449 246.223 162.141 236.522C162.22 236.286 162.298 235.97 162.376 235.733C162.612 232.973 162.927 217.909 162.376 212.151C162.376 212.072 162.376 211.915 162.376 211.836C162.141 210.653 160.963 203.87 149.495 199.137C149.495 199.137 135.277 192.985 131.35 189.515C130.721 188.963 129.936 187.386 129.936 186.597L130.014 173.504C130.643 170.823 132.449 171.611 134.884 171.611C137.319 171.611 138.733 173.662 138.733 176.107L138.969 191.014C138.891 192.433 140.54 192.197 142.032 192.197Z" fill="#0D3A94"/>
<path d="M200.945 244.487C200.945 244.487 189.712 248.667 180.6 246.774C172.902 245.118 169.525 239.991 168.032 237.547C167.561 236.758 167.404 233.445 167.404 232.499L167.247 168.85C167.247 166.642 168.032 164.512 169.525 162.935C172.039 160.253 176.516 156.704 182.093 157.177C190.89 157.887 199.452 159.228 199.452 159.228L198.745 171.453C198.745 171.453 192.697 169.718 191.911 172.005C190.262 176.737 190.812 231.079 190.812 231.079C190.812 231.079 192.147 235.811 196.467 233.366C200.787 230.921 200.945 232.657 200.945 232.657V244.487Z" fill="#0D3A94"/>
<path d="M225.924 116.321L199.139 136.67V245.196H225.531L225.924 116.321Z" fill="#0D3A94"/>
<path d="M226.552 246.303H198.117V136.121L227.023 114.195L226.552 246.303ZM200.238 244.173H224.431L224.824 118.454L200.238 137.146V244.173Z" fill="#0887D6"/>
<path d="M266.847 247.247H289.862V168.85C289.862 168.85 288.998 159.938 274.938 158.203C274.938 158.203 267.711 156.941 261.663 159.465L255.222 161.752L254.829 172.951C254.829 172.951 263.077 170.191 265.512 171.611C267.554 172.794 267.24 175.475 267.475 180.208C267.711 185.098 266.847 247.247 266.847 247.247Z" fill="#0D3A94"/>
<path d="M231.893 99.3672L258.599 122.476V246.224H232.285L231.893 99.3672Z" fill="#0D3A94"/>
<path d="M259.701 247.248H231.266L230.873 97L259.779 122.002V247.248H259.701ZM233.386 245.119H257.58V123.027L232.994 101.732L233.386 245.119Z" fill="#0887D6"/>
</svg>
