<svg width="345" height="345" viewBox="0 0 345 345" fill="none" xmlns="http://www.w3.org/2000/svg">
<path fill-rule="evenodd" clip-rule="evenodd" d="M149.335 258.546C144.49 261.432 140.095 263.152 135.484 263.152C123.549 263.152 113.573 253.353 113 241.628L136.258 227.772L172.408 243.941L149.335 258.556V258.546Z" fill="#71B0D1"/>
<path fill-rule="evenodd" clip-rule="evenodd" d="M163.157 199.021L145.891 191.412C138.169 187.982 130.884 185.092 130.884 176.601C130.884 172.191 132.221 169.888 134.314 167.59L170.865 183.72L161.805 188.948C159.311 190.481 157.582 191.829 157.582 193.749C157.582 195.827 159.958 197.595 163.157 199.046V199.021Z" fill="#A4D0A0"/>
<path fill-rule="evenodd" clip-rule="evenodd" d="M180.124 119.31L162.417 130.054C160.844 131.005 158.743 132.534 158.743 134.895C158.743 137.575 162.829 139.633 166.464 141.358L144.303 131.559C137.777 128.687 131.266 125.424 131.266 117.555C131.232 114.605 132.1 111.714 133.755 109.27L181.658 80C187.4 83.2533 192.966 89.8384 192.966 98.6626C192.966 108.114 188.179 114.439 180.124 119.285V119.31Z" fill="#71B0D1"/>
<path fill-rule="evenodd" clip-rule="evenodd" d="M217.814 153.92L213.404 156.414L176.814 140.245L219.342 114.635C225.08 117.947 230.71 124.469 230.71 133.288C230.71 142.734 226.05 149.251 217.799 153.901L217.814 153.92Z" fill="#A4D0A0"/>
<path fill-rule="evenodd" clip-rule="evenodd" d="M186.91 184.989L208.552 194.499C216.66 198.134 219.154 202.397 219.154 207.782C219.154 210.844 217.425 213.921 214.941 216.033L178.546 199.864L184.705 196.434C189.909 193.558 191.638 191.828 191.638 189.913C191.638 187.919 190.423 186.606 186.91 185.013V184.989Z" fill="#71B0D1"/>
<path fill-rule="evenodd" clip-rule="evenodd" d="M225.48 264.877C216.273 257.787 206.45 252.99 194.509 247.571L139.32 223.157C125.454 216.973 116.263 208.737 116.263 194.871C116.263 181.397 122.784 174.876 131.265 169.511L134.328 167.59C132.221 169.888 130.898 172.191 130.898 176.601C130.898 185.092 138.184 187.963 145.905 191.412L210.09 219.707C221.256 224.504 231.477 232.755 231.477 246.802C231.477 254.524 228.537 261.432 225.475 264.877H225.48Z" fill="#22A947"/>
<path fill-rule="evenodd" clip-rule="evenodd" d="M218.963 213.524L214.94 216.027C217.424 213.916 219.154 210.839 219.154 207.777C219.154 202.387 216.655 198.129 208.551 194.494L139.908 164.273C126.052 158.148 117.423 150.231 117.423 136.429C117.423 123.719 123.749 115.419 133.768 109.295C132.11 111.735 131.236 114.624 131.265 117.575C131.265 125.444 137.776 128.707 144.303 131.578L211.04 161.015C223.176 166.404 233 174.489 233 189.305C233 200.863 227.61 208.149 218.963 213.519V213.524Z" fill="#0072A9"/>
</svg>
